<?xml version="1.0" encoding="UTF-8" standalone="no"?>
<!DOCTYPE svg PUBLIC "-//W3C//DTD SVG 1.1//EN"
 "http://www.w3.org/Graphics/SVG/1.1/DTD/svg11.dtd">
<!-- Generated by graphviz version 2.38.0 (20140413.2041)
 -->
<!-- Title: G Pages: 1 -->
<svg width="354pt" height="516pt"
 viewBox="0.00 0.00 354.00 516.00" xmlns="http://www.w3.org/2000/svg" xmlns:xlink="http://www.w3.org/1999/xlink">
<g id="graph0" class="graph" transform="scale(1 1) rotate(0) translate(4 512)">
<title>G</title>
<polygon fill="white" stroke="none" points="-4,4 -4,-512 350,-512 350,4 -4,4"/>
<g id="clust1" class="cluster"><title>cluster1</title>
<polygon fill="none" stroke="black" points="8,-8 8,-390 338,-390 338,-8 8,-8"/>
<text text-anchor="middle" x="173" y="-374.8" font-family="Times,serif" font-size="14.00">StokeT</text>
</g>
<g id="clust2" class="cluster"><title>cluster2</title>
<polygon fill="none" stroke="black" points="127.5,-398 127.5,-500 218.5,-500 218.5,-398 127.5,-398"/>
<text text-anchor="middle" x="173" y="-484.8" font-family="Times,serif" font-size="14.00">vPointT</text>
</g>
<!-- myColor -->
<g id="node1" class="node"><title>myColor</title>
<polygon fill="mintcream" stroke="none" points="330,-360 16,-360 16,-16 330,-16 330,-360"/>
<polygon fill="mintcream" stroke="none" points="24,-20 24,-356 322,-356 322,-20 24,-20"/>
<polygon fill="gray" stroke="none" points="24,-328 24,-356 146,-356 146,-328 24,-328"/>
<polygon fill="none" stroke="black" points="24,-328 24,-356 146,-356 146,-328 24,-328"/>
<text text-anchor="start" x="71" y="-337.8" font-family="Times,serif" font-size="14.00">vu32</text>
<polygon fill="none" stroke="black" points="146,-328 146,-356 322,-356 322,-328 146,-328"/>
<text text-anchor="start" x="196.662" y="-337.8" font-family="Times,serif" font-size="14.00">numOfPoints</text>
<polygon fill="gray" stroke="none" points="24,-300 24,-328 146,-328 146,-300 24,-300"/>
<polygon fill="none" stroke="black" points="24,-300 24,-328 146,-328 146,-300 24,-300"/>
<text text-anchor="start" x="66.7173" y="-309.8" font-family="Times,serif" font-size="14.00">vPoint</text>
<polygon fill="none" stroke="black" points="146,-300 146,-328 322,-328 322,-300 146,-300"/>
<text text-anchor="start" x="221.948" y="-309.8" font-family="Times,serif" font-size="14.00">start</text>
<polygon fill="gray" stroke="none" points="24,-272 24,-300 146,-300 146,-272 24,-272"/>
<polygon fill="none" stroke="black" points="24,-272 24,-300 146,-300 146,-272 24,-272"/>
<text text-anchor="start" x="66.7173" y="-281.8" font-family="Times,serif" font-size="14.00">vPoint</text>
<polygon fill="none" stroke="black" points="146,-272 146,-300 322,-300 322,-272 146,-272"/>
<text text-anchor="start" x="214.685" y="-281.8" font-family="Times,serif" font-size="14.00">offset1</text>
<polygon fill="gray" stroke="none" points="24,-244 24,-272 146,-272 146,-244 24,-244"/>
<polygon fill="none" stroke="black" points="24,-244 24,-272 146,-272 146,-244 24,-244"/>
<text text-anchor="start" x="66.7173" y="-253.8" font-family="Times,serif" font-size="14.00">vPoint</text>
<polygon fill="none" stroke="black" points="146,-244 146,-272 322,-272 322,-244 146,-244"/>
<text text-anchor="start" x="214.685" y="-253.8" font-family="Times,serif" font-size="14.00">offset2</text>
<polygon fill="none" stroke="black" points="24,-216 24,-244 322,-244 322,-216 24,-216"/>
<text text-anchor="start" x="167.75" y="-225.8" font-family="Times,serif" font-size="14.00">...</text>
<polygon fill="gray" stroke="none" points="24,-188 24,-216 146,-216 146,-188 24,-188"/>
<polygon fill="none" stroke="black" points="24,-188 24,-216 146,-216 146,-188 24,-188"/>
<text text-anchor="start" x="66.7173" y="-197.8" font-family="Times,serif" font-size="14.00">vPoint</text>
<polygon fill="none" stroke="black" points="146,-188 146,-216 322,-216 322,-188 146,-188"/>
<text text-anchor="start" x="170.354" y="-197.8" font-family="Times,serif" font-size="14.00">offset(numOfPoints&#45;1)</text>
<polygon fill="gray" stroke="none" points="24,-160 24,-188 146,-188 146,-160 24,-160"/>
<polygon fill="none" stroke="black" points="24,-160 24,-188 146,-188 146,-160 24,-160"/>
<text text-anchor="start" x="67.1138" y="-169.8" font-family="Times,serif" font-size="14.00">UB(4)</text>
<polygon fill="none" stroke="black" points="146,-160 146,-188 322,-188 322,-160 146,-160"/>
<text text-anchor="start" x="169.845" y="-169.8" font-family="Times,serif" font-size="14.00">numberOfBits for time</text>
<polygon fill="gray" stroke="none" points="24,-132 24,-160 146,-160 146,-132 24,-132"/>
<polygon fill="none" stroke="black" points="24,-132 24,-160 146,-160 146,-132 24,-132"/>
<text text-anchor="start" x="30.562" y="-141.8" font-family="Times,serif" font-size="14.00">UB(numberOfBits)</text>
<polygon fill="none" stroke="black" points="146,-132 146,-160 322,-160 322,-132 146,-132"/>
<text text-anchor="start" x="207.418" y="-141.8" font-family="Times,serif" font-size="14.00">startTime</text>
<polygon fill="gray" stroke="none" points="24,-104 24,-132 146,-132 146,-104 24,-104"/>
<polygon fill="none" stroke="black" points="24,-104 24,-132 146,-132 146,-104 24,-104"/>
<text text-anchor="start" x="30.562" y="-113.8" font-family="Times,serif" font-size="14.00">UB(numberOfBits)</text>
<polygon fill="none" stroke="black" points="146,-104 146,-132 322,-132 322,-104 146,-104"/>
<text text-anchor="start" x="196.026" y="-113.8" font-family="Times,serif" font-size="14.00">timeOffset(1)</text>
<polygon fill="gray" stroke="none" points="24,-76 24,-104 146,-104 146,-76 24,-76"/>
<polygon fill="none" stroke="black" points="24,-76 24,-104 146,-104 146,-76 24,-76"/>
<text text-anchor="start" x="30.562" y="-85.8" font-family="Times,serif" font-size="14.00">UB(numberOfBits)</text>
<polygon fill="none" stroke="black" points="146,-76 146,-104 322,-104 322,-76 146,-76"/>
<text text-anchor="start" x="196.026" y="-85.8" font-family="Times,serif" font-size="14.00">timeOffset(2)</text>
<polygon fill="none" stroke="black" points="24,-48 24,-76 322,-76 322,-48 24,-48"/>
<text text-anchor="start" x="167.75" y="-57.8" font-family="Times,serif" font-size="14.00">...</text>
<polygon fill="gray" stroke="none" points="24,-20 24,-48 146,-48 146,-20 24,-20"/>
<polygon fill="none" stroke="black" points="24,-20 24,-48 146,-48 146,-20 24,-20"/>
<text text-anchor="start" x="30.562" y="-29.8" font-family="Times,serif" font-size="14.00">UB(numberOfBits)</text>
<polygon fill="none" stroke="black" points="146,-20 146,-48 322,-48 322,-20 146,-20"/>
<text text-anchor="start" x="152.857" y="-29.8" font-family="Times,serif" font-size="14.00">timeOffset(numOfPoints &#45; 1)</text>
</g>
<!-- vPointT -->
<g id="node2" class="node"><title>vPointT</title>
<polygon fill="mintcream" stroke="none" points="210.5,-470 135.5,-470 135.5,-406 210.5,-406 210.5,-470"/>
<polygon fill="mintcream" stroke="none" points="143.5,-410 143.5,-466 202.5,-466 202.5,-410 143.5,-410"/>
<polygon fill="gray" stroke="none" points="144,-438 144,-466 182,-466 182,-438 144,-438"/>
<polygon fill="none" stroke="black" points="144,-438 144,-466 182,-466 182,-438 144,-438"/>
<text text-anchor="start" x="150.555" y="-447.8" font-family="Times,serif" font-size="14.00">vi32</text>
<polygon fill="none" stroke="black" points="182,-438 182,-466 203,-466 203,-438 182,-438"/>
<text text-anchor="start" x="189" y="-447.8" font-family="Times,serif" font-size="14.00">x</text>
<polygon fill="gray" stroke="none" points="144,-410 144,-438 182,-438 182,-410 144,-410"/>
<polygon fill="none" stroke="black" points="144,-410 144,-438 182,-438 182,-410 144,-410"/>
<text text-anchor="start" x="150.555" y="-419.8" font-family="Times,serif" font-size="14.00">vi32</text>
<polygon fill="none" stroke="black" points="182,-410 182,-438 203,-438 203,-410 182,-410"/>
<text text-anchor="start" x="189" y="-419.8" font-family="Times,serif" font-size="14.00">y</text>
</g>
</g>
</svg>
